<?xml version="1.0" encoding="UTF-8"?>
<svg width="700pt" height="700pt" version="1.1" viewBox="0 0 700 700" xmlns="http://www.w3.org/2000/svg">
  <style type="text/css">
  	.st1{
      fill:#0d2880;
    }
  </style>
 <path class="st1" d="m256.67 140c0-24.754 9.832-48.492 27.336-65.996s41.242-27.336 65.996-27.336 48.492 9.832 65.996 27.336 27.336 41.242 27.336 65.996-9.832 48.492-27.336 65.996-41.242 27.336-65.996 27.336c-24.746-0.023437-48.469-9.8672-65.969-27.363-17.496-17.5-27.34-41.223-27.363-65.969zm93.332 116.67c-49.488 0.054687-96.938 19.738-131.93 54.734-34.996 34.996-54.68 82.441-54.738 131.93 0.023438 18.559 7.4023 36.352 20.527 49.477 13.121 13.121 30.914 20.504 49.473 20.523h233.34c18.559-0.019531 36.352-7.4023 49.473-20.523 13.125-13.125 20.504-30.918 20.527-49.477-0.058594-49.488-19.742-96.934-54.738-131.93-34.992-34.996-82.441-54.68-131.93-54.734z"/>
</svg>
